<svg xmlns="http://www.w3.org/2000/svg" width="1400" height="610" viewBox="0 0 1400 610">
  <style>
    .bg{fill:#111}.card{fill:#1c1c1c;stroke:#383838}.head{fill:#262626}.line{stroke:#383838}.t{fill:#f3f3f3;font:14px Arial}.muted{fill:#9aa0a6;font:12px Arial}.title{fill:#fff;font:26px Arial}.chip{fill:#191919;stroke:#454545}.active{stroke:#03a9d9}.cyan{fill:#03a9d9}.green{fill:#43a047}.blue{fill:#039be5}.yellow{fill:#ffb300}.mono{fill:#03a9d9;font:13px Consolas,monospace}.tag{fill:#161616;stroke:#60656a}.tagtext{fill:#eee;font:11px Arial}
  </style>
  <rect class="bg" width="1400" height="610"/><rect class="card" x="20" y="20" width="1360" height="570" rx="14"/>
  <text class="title" x="42" y="65">Netzwerkgeräte</text>
  <g transform="translate(42 91)"><rect class="chip" width="62" height="28" rx="14"/><text class="t" x="17" y="19">☷ Alle</text><rect class="chip active" x="70" width="70" height="28" rx="14"/><text class="cyan" x="84" y="19" font-family="Arial" font-size="14">▦ Aktiv</text><rect class="chip" x="148" width="76" height="28" rx="14"/><text class="t" x="160" y="19">Inaktiv</text><rect class="chip" x="232" width="61" height="28" rx="14"/><text class="t" x="247" y="19">Neu</text><rect class="chip" x="301" width="81" height="28" rx="14"/><text class="t" x="313" y="19">Manuell</text><rect class="chip" x="390" width="193" height="28" rx="14"/><text class="t" x="404" y="19">Heimnetz: 192.168.10.0/24</text><rect class="chip" x="591" width="172" height="28" rx="14"/><text class="t" x="607" y="19">Gast: 192.168.20.0/24</text></g>
  <g transform="translate(865 91)"><rect class="chip" width="135" height="28" rx="14"/><text class="t" x="14" y="19">↻ Pi-hole abgleichen</text><rect class="chip" x="143" width="105" height="28" rx="14"/><text class="t" x="158" y="19">＋ DNS-Eintrag</text><rect class="chip" x="256" width="105" height="28" rx="14"/><text class="t" x="271" y="19">↻ Aktualisieren</text><rect class="chip" x="369" width="116" height="28" rx="14"/><text class="t" x="383" y="19">▦ Excel-Export</text></g>
  <text class="muted" x="42" y="141">8 Geräte · 6 aktiv · 1 manuell · 8 angezeigt</text>
  <rect class="head" x="21" y="156" width="1358" height="38"/>
  <g class="muted"><text x="74" y="180">FRITZ!Box-Name</text><text x="285" y="180">PTR 1</text><text x="470" y="180">Netz</text><text x="575" y="180">MAC-Adresse</text><text x="745" y="180">IP-Adresse ↑</text><text x="875" y="180">Kommentar</text><text x="1015" y="180">Verbindung</text><text x="1130" y="180">Home Assistant</text><text x="1270" y="180">IP-Typ</text></g>
  <g>
    <line class="line" x1="21" y1="236" x2="1379" y2="236"/><circle class="blue" cx="42" cy="216" r="5"/><text class="t" x="66" y="220">◆ drucker.fritz.box</text><rect class="tag" x="466" y="204" width="58" height="21" rx="4"/><text class="yellow" x="476" y="219" font-size="11" font-family="Arial">manuell</text><text class="mono" x="745" y="220">192.168.10.70</text>
    <line class="line" x1="21" y1="286" x2="1379" y2="286"/><circle class="green" cx="42" cy="266" r="5"/><text class="t" x="66" y="270">▣ fritz.box</text><text class="muted" x="285" y="270">fritz.box</text><rect class="tag" x="473" y="254" width="38" height="21" rx="4"/><text class="tagtext" x="482" y="269">LAN</text><text class="muted" x="575" y="270">00:11:22:33:44:01</text><text class="mono" x="745" y="270">192.168.10.1</text><text class="t" x="875" y="270">Router</text><text class="t" x="1015" y="270">LAN</text><text class="cyan" x="1270" y="270" font-size="12">statisch</text>
    <line class="line" x1="21" y1="336" x2="1379" y2="336"/><circle class="green" cx="42" cy="316" r="5"/><text class="t" x="66" y="320">▣ Accesspoint-Wohnzimmer</text><text class="muted" x="285" y="320">ap-wohnzimmer.fritz.box</text><rect class="tag" x="473" y="304" width="38" height="21" rx="4"/><text class="tagtext" x="482" y="319">LAN</text><text class="muted" x="575" y="320">00:11:22:33:44:03</text><text class="mono" x="745" y="320">192.168.10.3</text><text class="t" x="875" y="320">Wohnzimmer</text><text class="t" x="1015" y="320">LAN 1</text><text class="cyan" x="1270" y="320" font-size="12">statisch</text>
    <line class="line" x1="21" y1="386" x2="1379" y2="386"/><circle class="green" cx="42" cy="366" r="5"/><text class="t" x="66" y="370">▣ NAS-Buero</text><text class="muted" x="285" y="370">nas-buero.fritz.box</text><rect class="tag" x="473" y="354" width="38" height="21" rx="4"/><text class="tagtext" x="482" y="369">LAN</text><text class="muted" x="575" y="370">00:11:22:33:44:20</text><text class="mono" x="745" y="370">192.168.10.20</text><text class="t" x="875" y="370">Arbeitszimmer</text><text class="t" x="1015" y="370">LAN 2</text><text class="t" x="1130" y="370">Dateiserver</text><text class="cyan" x="1270" y="370" font-size="12">statisch</text>
    <line class="line" x1="21" y1="436" x2="1379" y2="436"/><circle class="green" cx="42" cy="416" r="5"/><text class="t" x="66" y="420">⌁ Notebook</text><text class="muted" x="285" y="420">notebook.fritz.box</text><rect class="tag" x="468" y="404" width="48" height="21" rx="4"/><text class="tagtext" x="477" y="419">WLAN</text><text class="muted" x="575" y="420">00:11:22:33:44:44</text><text class="mono" x="745" y="420">192.168.10.44</text><text class="t" x="1015" y="420">WLAN</text><text class="t" x="1130" y="420">Arbeitszimmer</text><text class="muted" x="1270" y="420">DHCP</text>
    <line class="line" x1="21" y1="486" x2="1379" y2="486"/><circle class="green" cx="42" cy="466" r="5"/><text class="t" x="66" y="470">⌁ Gartenlicht</text><rect x="195" y="452" width="35" height="20" rx="4" fill="#332500" stroke="#ffb300"/><text class="yellow" x="202" y="466" font-size="10">Gast</text><rect x="455" y="454" width="76" height="21" rx="4" fill="#332500" stroke="#ffb300"/><text class="yellow" x="465" y="469" font-size="11">Gast WLAN</text><text class="muted" x="575" y="470">00:11:22:33:55:05</text><text class="mono" x="745" y="470">192.168.20.5</text><text class="t" x="875" y="470">Garten</text><text class="t" x="1015" y="470">WLAN (Gast)</text><text class="muted" x="1270" y="470">DHCP</text>
    <rect x="21" y="486" width="1358" height="52" fill="#4b3b13"/><circle class="green" cx="42" cy="512" r="5"/><text class="t" x="66" y="516">⌁ Neues-Geraet</text><rect x="180" y="499" width="92" height="25" rx="5" fill="#ffb300"/><text x="190" y="516" fill="#251900" font-size="12" font-family="Arial">✓ Neu bestätigen</text><rect class="tag" x="468" y="501" width="48" height="21" rx="4"/><text class="tagtext" x="477" y="516">WLAN</text><text class="muted" x="575" y="516">00:11:22:33:44:88</text><text class="mono" x="745" y="516">192.168.10.88</text><text class="t" x="1015" y="516">WLAN</text><text class="muted" x="1270" y="516">DHCP</text>
  </g>
</svg>
